<?xml version="1.0" standalone="no"?>
<!DOCTYPE svg PUBLIC "-//W3C//DTD SVG 20010904//EN"
 "http://www.w3.org/TR/2001/REC-SVG-20010904/DTD/svg10.dtd">
<svg version="1.0" xmlns="http://www.w3.org/2000/svg"
 width="500.000000pt" height="500.000000pt" viewBox="0 0 500.000000 500.000000"
 preserveAspectRatio="xMidYMid meet">
<metadata>
Created by potrace 1.14, written by Peter Selinger 2001-2017
</metadata>
<g transform="translate(0.000000,500.000000) scale(0.100000,-0.100000)"
fill="#000000" stroke="none">
<path d="M0 2500 l0 -2500 2500 0 2500 0 0 2500 0 2500 -2500 0 -2500 0 0
-2500z m1655 715 c122 -26 211 -68 314 -148 86 -66 136 -134 273 -372 440
-762 528 -915 528 -920 0 -3 -69 -5 -153 -5 l-153 0 -134 229 -135 229 -39
-77 c-59 -113 -201 -251 -316 -308 -127 -62 -202 -76 -362 -71 -118 4 -142 8
-217 36 -184 69 -323 195 -406 367 -60 124 -79 219 -73 359 13 284 167 509
432 631 132 62 298 80 441 50z m1010 -214 c72 -121 133 -222 137 -226 3 -3 20
22 38 57 73 143 175 245 315 314 154 76 319 100 477 70 411 -79 676 -494 573
-901 -41 -162 -165 -338 -303 -428 -137 -89 -231 -117 -401 -117 -188 0 -321
41 -456 142 -117 87 -116 85 -666 1041 -82 142 -149 261 -149 265 0 4 69 6
152 5 l153 -2 130 -220z"/>
<path d="M1391 2944 c-161 -43 -293 -180 -331 -343 -21 -88 -9 -213 28 -294
84 -184 293 -299 488 -268 150 23 285 123 352 261 36 74 37 77 37 195 0 117
-1 122 -36 196 -97 204 -325 311 -538 253z"/>
<path d="M3420 2953 c-172 -29 -318 -152 -366 -311 -26 -83 -23 -228 5 -307
56 -155 174 -256 345 -292 131 -27 254 0 366 82 225 166 249 497 50 696 -106
107 -256 156 -400 132z"/>
</g>
</svg>
