<?xml version="1.0" standalone="no"?>
<!DOCTYPE svg PUBLIC "-//W3C//DTD SVG 20010904//EN"
 "http://www.w3.org/TR/2001/REC-SVG-20010904/DTD/svg10.dtd">
<svg version="1.0" xmlns="http://www.w3.org/2000/svg"
 width="225.000000pt" height="225.000000pt" viewBox="0 0 225.000000 225.000000"
 preserveAspectRatio="xMidYMid meet">
<metadata>
Created by potrace 1.14, written by Peter Selinger 2001-2017
</metadata>
<g transform="translate(0.000000,225.000000) scale(0.100000,-0.100000)"
fill="#000000" stroke="none">
<path d="M927 2235 c-298 -56 -566 -232 -735 -481 -62 -90 -129 -240 -159
-351 -24 -89 -27 -115 -27 -278 0 -164 3 -189 27 -280 60 -224 205 -448 382
-592 220 -178 476 -262 760 -250 340 14 647 177 854 452 72 95 155 269 188
390 24 91 27 116 27 280 0 163 -3 189 -27 278 -52 195 -155 374 -297 516 -141
142 -324 247 -517 298 -125 32 -354 41 -476 18z m126 -684 c18 -7 47 -48 98
-136 40 -69 76 -128 80 -130 4 -3 21 19 37 48 37 65 77 101 156 138 226 107
498 -35 551 -287 45 -215 -91 -420 -308 -464 -115 -23 -258 22 -345 109 -58
59 -382 614 -382 655 0 32 40 76 69 76 11 0 31 -4 44 -9z m-271 -102 c77 -26
141 -69 179 -122 58 -79 199 -337 199 -362 0 -60 -87 -98 -129 -56 -18 18 -19
18 -34 -15 -39 -80 -138 -159 -236 -188 -178 -52 -379 41 -458 211 -51 110
-49 223 6 337 84 176 284 259 473 195z"/>
<path d="M1531 1339 c-105 -31 -166 -117 -166 -230 0 -56 5 -73 30 -115 19
-30 49 -60 79 -79 44 -27 58 -30 126 -30 67 0 82 4 118 28 67 44 96 97 100
182 4 76 -5 107 -54 171 -43 58 -160 95 -233 73z"/>
<path d="M540 1278 c-153 -92 -145 -318 14 -400 53 -28 147 -30 196 -4 124 65
171 197 111 314 -41 80 -113 122 -209 122 -47 0 -68 -6 -112 -32z"/>
</g>
</svg>
